<svg xmlns="http://www.w3.org/2000/svg" viewBox="0 0 31.027 32.521">
    <defs>
        <style>
            .cls-1{fill:#8bbbe8}
        </style>
    </defs>
    <g id="Atencion_personalizada" data-name="Atencion personalizada" transform="translate(-183.5 -1034.967)">
        <path id="Path_94" d="M30.833 1004.4s4.176.1 6.9.5a13.074 13.074 0 0 1 4 1.086 9.067 9.067 0 0 1-.439 2.907 8.5 8.5 0 0 1-1 2.373l-.722.367s-1.667.975-9.818 0a45.779 45.779 0 0 1-7.625-5.036.8.8 0 0 1 1.079-1.079l6.186 2.518c5.231 1.382 5.826-1.079 5.826-1.439l-4.747-.719a.92.92 0 0 1 .36-1.475zm12.3 1.87a7.216 7.216 0 0 1 1.979 0 6.645 6.645 0 0 1 2.085.612 8.633 8.633 0 0 1-.707 4.381c-1.077 2.647-2.544 3.208-2.544 3.208a4.209 4.209 0 0 1-1.367.129 5.244 5.244 0 0 1-1.424-.129s1.507-7.905 1.978-8.2z" class="cls-1" data-name="Path 94" transform="translate(167.278 52.884)"/>
        <path id="Subtraction_19" d="M23367.273 22885.363h-20.037c-1.3 0-2.861-.373-2.861-2.146h6.07v-2.176a6.92 6.92 0 0 1-1.609-6.07l.23-1.025h4.236l.229 1.025a6.618 6.618 0 0 1-1.6 5.959v2.287h5.266v-12.135a2.991 2.991 0 0 1 1.836-2.633v-2.4h-.346a.081.081 0 0 1 0-.021 3.983 3.983 0 0 1 0-1.469 4.593 4.593 0 0 1 1.4-.166 5.567 5.567 0 0 1 1.463.166c.213.092 0 1.477 0 1.49h-.34v2.4a2.81 2.81 0 0 1 1.83 2.633v4.34h-2.861a1 1 0 0 0-1 1v4a1 1 0 0 0 1 1h2.861v1.795h7.1c-.005 1.773-1.562 2.146-2.867 2.146z" class="cls-1" data-name="Subtraction 19" transform="translate(-23160.875 -21829.422)"/>
    </g>
</svg>
