<svg xmlns="http://www.w3.org/2000/svg" viewBox="0 0 23.553 27.436">
    <defs>
        <style>
            .cls-1{fill:#8bbbe8}
        </style>
    </defs>
    <g id="Catering_exlusivo" data-name="Catering exlusivo" transform="translate(-.001)">
        <path id="Union_1" d="M5.961 19.868v-6.9a4.771 4.771 0 1 1 .307-9.152 5.663 5.663 0 0 1 10.913.759 4.772 4.772 0 1 1 1.3 9.429v5.378a8.992 8.992 0 0 0-2.681-1.307 11.21 11.21 0 0 0-3.288-.481 11.051 11.051 0 0 0-3.7.618 8.5 8.5 0 0 0-2.854 1.656z" class="cls-1" data-name="Union 1"/>
        <path id="Union_7" d="M2.068 5.478A5.515 5.515 0 0 1 0 4.193a5.772 5.772 0 0 0 2.283.462 5.838 5.838 0 0 0 1.868-.3h-.008s2.047-.7 2.116-2.038v-.135a2.238 2.238 0 0 1 4.474 0 2.143 2.143 0 0 1-.02.3 2.735 2.735 0 0 1-.439 1.177 4.175 4.175 0 0 1-1.244 1.2 7.6 7.6 0 0 1-4.111 1.105 8.348 8.348 0 0 1-2.851-.486z" class="cls-1" data-name="Union 7" transform="translate(.904 21.471)"/>
        <path id="Union_9" d="M8.661 5.478a5.515 5.515 0 0 0 2.068-1.284 5.772 5.772 0 0 1-2.283.462 5.838 5.838 0 0 1-1.868-.3h.008s-2.047-.7-2.116-2.038v-.135A2.21 2.21 0 0 0 2.237 0 2.21 2.21 0 0 0 0 2.182a2.144 2.144 0 0 0 .02.3 2.735 2.735 0 0 0 .439 1.172A4.175 4.175 0 0 0 1.7 4.856a7.6 7.6 0 0 0 4.11 1.108 8.348 8.348 0 0 0 2.851-.486z" class="cls-1" data-name="Union 9" transform="translate(12.825 21.471)"/>
    </g>
</svg>
