<?xml version="1.0" standalone="no"?>
<!DOCTYPE svg PUBLIC "-//W3C//DTD SVG 1.1//EN" "http://www.w3.org/Graphics/SVG/1.1/DTD/svg11.dtd" >
<svg xmlns="http://www.w3.org/2000/svg" xmlns:xlink="http://www.w3.org/1999/xlink" version="1.1" viewBox="-10 0 1034 1024">
   <path fill="currentColor"
d="M512 832v0v0q-66 0 -125 -25q-58 -25 -101.5 -68.5t-68.5 -101.5q-25 -59 -25 -125t25 -125q25 -58 68.5 -101.5t101.5 -68.5q59 -25 125 -25t125 25q58 25 101.5 68.5t68.5 101.5q25 59 25 125t-25 124.5t-69 101.5v0q-43 44 -101 69t-124 25h-0.5h-0.5v0v0zM462 633v71
h57v-71h-57zM521 392q5 0 9.5 0.5t9.5 2.5l-1 -1q5 2 9 4t7 5v0q3 3 5.5 6.5t4.5 7.5h1q1 4 2.5 8.5t1.5 9.5v0v1v0v0v0q0 7 -2 13.5t-6 11.5v0q-4 6 -8.5 10.5t-9.5 8.5v0q-5 4 -10.5 7.5t-10.5 6.5h-1q-5 3 -9.5 5.5t-9.5 5.5q-11 6 -19.5 14.5t-14.5 19.5v1q-4 9 -6 20
t-2 23v0.5v1.5v0h56v-1v-1q0 -5 1.5 -10.5t4.5 -9.5v0q3 -5 6 -9t7 -7h1q4 -3 8.5 -6.5t9.5 -5.5v-1q4 -2 9 -5t12 -6q6 -4 11.5 -8t10.5 -9v1q5 -4 9 -8.5t7 -9.5l1 -1q3 -5 6 -10.5t4 -11.5l1 -1q1 -6 2 -13t1 -14v-0.5v-0.5v0v-1.5v-1.5q0 -11 -2.5 -22.5t-6.5 -21.5v1
q-5 -10 -11 -17.5t-14 -14.5v0q-7 -6 -15.5 -10.5t-17.5 -6.5l-1 -1q-8 -2 -18 -3.5t-20 -1.5v0v0v0q-9 0 -18 1t-17 3h1q-17 4 -31 12.5t-25 20.5v1q-5 6 -9.5 12.5t-7.5 14.5v1l44 31q3 -5 5.5 -8.5t5.5 -6.5h-1l6.5 -6.5l6.5 -6.5h1q3 -3 7 -5.5t9 -3.5v-1q5 -1 9.5 -2
t10.5 -1h0.5h0.5v0v0z" />
</svg>
