<svg xmlns="http://www.w3.org/2000/svg" viewBox="0 0 17.211 18.002"><defs><style>.cls-2,.cls-4{fill:#fff}.cls-3,.cls-4{stroke:none}</style></defs><g id="descarga" transform="translate(17776 -2764)" opacity=".8"><g id="Subtraction_15" class="cls-2" data-name="Subtraction 15"><path d="M5.07 10.898h-.823A3.75 3.75 0 0 1 .5 7.15a3.756 3.756 0 0 1 3.24-3.71l.343-.046.077-.337A3.313 3.313 0 0 1 5.307 1.23 3.307 3.307 0 0 1 7.376.5c1.077 0 2.09.528 2.708 1.412l.183.263.316-.057a3.303 3.303 0 0 1 3.893 3.246c0 .03 0 .06-.002.09l-.01.393.381.102a2.52 2.52 0 0 1 1.16 4.18c-.454.468-1.06.74-1.71.766l-1.26.001V7.304H5.07v3.594z" class="cls-3" transform="translate(-17776 2764)"/><path d="M4.57 10.397V6.804h8.965v3.592l.75-.001c.516-.023.999-.24 1.36-.614a2.019 2.019 0 0 0-.928-3.35l-.762-.203.02-.787v-.077a2.803 2.803 0 0 0-3.302-2.754l-.632.115-.367-.526a2.806 2.806 0 0 0-4.053-.58 2.81 2.81 0 0 0-.973 1.549l-.156.674-.685.093A3.254 3.254 0 0 0 1 7.15a3.25 3.25 0 0 0 3.248 3.246h.322m1 1.001H4.246A4.251 4.251 0 0 1 0 7.15a4.258 4.258 0 0 1 3.673-4.207A3.816 3.816 0 0 1 4.993.839 3.809 3.809 0 0 1 7.377 0c1.24 0 2.406.608 3.117 1.626a3.804 3.804 0 0 1 4.48 3.84 3.02 3.02 0 0 1 2.238 2.914 3 3 0 0 1-.847 2.096 3 3 0 0 1-2.059.919l-1.77.002V7.804H5.57v3.594z" class="cls-4" transform="translate(-17776 2764)"/></g><g id="Union_11" class="cls-2" data-name="Union 11"><path d="M3.684 7.641L1.116 4.764h1.392V.5H4.86v4.264h1.391L3.684 7.641z" class="cls-3" transform="translate(-17770.666 2773.609)"/><path d="M3.684 6.89l1.452-1.626H4.36V1H3.008v4.264h-.775l1.451 1.627m0 1.5L0 4.265h2.008V0H5.36v4.264h2.008L3.685 8.392z" class="cls-4" transform="translate(-17770.666 2773.609)"/></g></g></svg>