<?xml version="1.0" standalone="no"?>
<!DOCTYPE svg PUBLIC "-//W3C//DTD SVG 1.1//EN" "http://www.w3.org/Graphics/SVG/1.1/DTD/svg11.dtd" >
<svg xmlns="http://www.w3.org/2000/svg" xmlns:xlink="http://www.w3.org/1999/xlink" version="1.1" viewBox="-10 0 1034 1024">
   <path fill="currentColor"
d="M518 466v113h189q-6 38 -48.5 90.5t-140.5 52.5q-43 -1 -82 -18q-38 -17 -66.5 -46t-44.5 -68q-17 -38 -17 -82v0v-1.5v-1.5q0 -43 17 -82q16 -38 44.5 -67t66.5 -45q39 -17 82 -17v0h1h1q38 0 72 13.5t61 36.5v0l92 -88q-46 -37 -104 -58.5t-122 -21.5h-1v0v0
q-69 0 -130 26q-62 27 -107.5 72.5t-71.5 106.5q-27 61 -27 131t27 131q26 61 71.5 106.5t107.5 72.5q61 26 130 26v0q73 0 132 -24q60 -24 102.5 -67.5t65.5 -103.5q24 -60 24 -133q0 -15 -2 -28.5t-2 -25.5h-320z" />
</svg>
