<?xml version="1.0" standalone="no"?>
<!DOCTYPE svg PUBLIC "-//W3C//DTD SVG 1.1//EN" "http://www.w3.org/Graphics/SVG/1.1/DTD/svg11.dtd" >
<svg width="20" height="20" xmlns="http://www.w3.org/2000/svg" xmlns:xlink="http://www.w3.org/1999/xlink" version="1.1" viewBox="-10 0 1034 1024">
   <path fill="currentColor"
d="M378 759q-27 0 -46.5 -19t-19.5 -47v0v0v0q0 -54 58 -92.5t140 -38.5t140 38.5t58 92.5q0 28 -19.5 47t-46.5 19v0h-264zM734 759q18 -15 28.5 -36t11.5 -46v0q-1 -28 -13.5 -51t-33.5 -37v-1h10h10q71 0 121.5 33.5t50.5 80.5q0 24 -17 40.5t-40 16.5v0h-128zM162 759v0
v0q-23 0 -40 -16.5t-17 -40.5v0q0 -47 50.5 -80.5t121.5 -33.5h10h10q-21 15 -33.5 38t-13.5 51v0q1 25 11.5 46t28.5 36v0h-128zM666 445v0v0q0 -47 33.5 -80.5t80.5 -33.5q48 0 81 33.5t33 80.5t-33 80.5t-81 33.5v0q-47 0 -80.5 -33.5t-33.5 -80.5v0v0zM129 445
q0 -48 33.5 -81.5t81.5 -33.5q47 0 80.5 33.5t33.5 81.5q0 47 -33.5 80.5t-80.5 33.5v0v0v0q-48 0 -81.5 -33.5t-33.5 -80.5v0v0v0v0zM378 397q0 -55 38.5 -93.5t93.5 -38.5q54 0 93 38.5t39 93.5q0 54 -39 93t-93 39v0q-55 0 -93.5 -39t-38.5 -93v-0.5v-0.5v0v1z" />
</svg>
