<?xml version="1.0" standalone="no"?>
<!DOCTYPE svg PUBLIC "-//W3C//DTD SVG 1.1//EN" "http://www.w3.org/Graphics/SVG/1.1/DTD/svg11.dtd" >
<svg xmlns="http://www.w3.org/2000/svg" xmlns:xlink="http://www.w3.org/1999/xlink" version="1.1" viewBox="-10 0 1034 1024">
   <path fill="currentColor"
d="M517 248q21 0 60 -18.5t92 -18.5q1 0 2.5 -0.5t3.5 -0.5q50 0 92.5 23.5t68.5 62.5v1q-42 25 -67 67.5t-25 93.5q0 59 33 106t85 67l1 1l-14 36q-15 36 -40 79.5t-60 80.5q-34 36 -75 36q-36 0 -70 -16t-70 -16q-41 0 -79 16t-62 16q-40 0 -82 -37q-41 -36 -74.5 -93
t-54.5 -127t-21 -137q0 -65 18 -114q19 -48 49 -80.5t67 -48.5q38 -16 77 -16q48 0 84.5 18.5t60.5 18.5v0zM550 76q23 -33 58 -53t76 -23h1v8v8q0 35 -11.5 67t-32.5 58l1 -1q-21 28 -52.5 44t-68.5 16h-4.5h-4.5v0q0 -4 -0.5 -8t-0.5 -8q0 -31 10.5 -59t28.5 -50v1v0z" />
</svg>
