<?xml version="1.0" standalone="no"?>
<!DOCTYPE svg PUBLIC "-//W3C//DTD SVG 1.1//EN" "http://www.w3.org/Graphics/SVG/1.1/DTD/svg11.dtd" >
<svg xmlns="http://www.w3.org/2000/svg" xmlns:xlink="http://www.w3.org/1999/xlink" version="1.1" viewBox="-10 0 1034 1024">
   <path fill="currentColor"
d="M693 693h-362q-51 0 -71 -20t-20 -70v-182q0 -50 20 -70t71 -20h362q51 0 71 20t20 70v182q0 50 -20 70t-71 20zM385 454q-37 0 -64 27t-27 65v0.5v0.5v0v0.5v0.5q0 38 27 65t64 28v0q38 -2 64.5 -29t26.5 -65t-26.5 -65t-63.5 -28h-1v0zM558 572q-9 0 -16 7t-7 16
q0 10 7 16.5t16 6.5v0h151q9 0 16 -6.5t7 -16.5q0 -9 -7 -16t-16 -7v0h-151zM558 497q-9 0 -16 6.5t-7 16.5q0 9 7 15.5t16 6.5v0h166q10 0 16.5 -6.5t6.5 -15.5q0 -10 -6.5 -16.5t-16.5 -6.5v0h-166zM340 392q-6 0 -10.5 4.5t-4.5 10.5v0v0v0v0v0q0 5 2.5 8.5t6.5 5.5v0
q-3 4 -4.5 8t-2.5 9v0q12 -7 27 -11t31 -4q17 0 32 4t28 12l-1 -1q-1 -5 -3 -9l-4 -8v0q4 -2 6.5 -5.5t2.5 -8.5v0v0v0q0 -6 -4.5 -10.5t-10.5 -4.5v0q-5 0 -8.5 2.5t-5.5 6.5v0q-3 -3 -7 -4.5t-9 -2.5v-1v-1q0 -7 -4.5 -11.5t-10.5 -4.5q-7 0 -11.5 4.5t-4.5 11.5v0v0v1v0
v1v-1q-4 2 -8.5 3.5t-7.5 4.5v0q-2 -4 -5.5 -6.5t-8.5 -2.5v0v0z" />
</svg>
