<?xml version="1.0" standalone="no"?>
<!DOCTYPE svg PUBLIC "-//W3C//DTD SVG 1.1//EN" "http://www.w3.org/Graphics/SVG/1.1/DTD/svg11.dtd" >
<svg xmlns="http://www.w3.org/2000/svg" xmlns:xlink="http://www.w3.org/1999/xlink" version="1.1" viewBox="-10 0 1034 1024">
   <path fill="currentColor"
d="M955 340v388q-2 13 -11 22t-22 11v0h-310v-260l61 44q3 3 7 4.5t9 1.5t9 -1.5t8 -4.5v0zM612 268h315h2h2q5 0 9.5 1.5t8.5 4.5v0q0 4 3 9t3 13l-271 216l-72 -55v-189zM562 102v820l-493 -83v-648l493 -89v0zM412 518q0 -2 0.5 -4t0.5 -4q0 -28 -9 -53t-25 -45v0
q-12 -20 -32 -32t-44 -12h-1v0v0q-24 2 -44.5 14t-33.5 30v0q-13 22 -20.5 47.5t-7.5 53.5v2.5t1 2.5h-1v1.5v2.5q0 28 9 54t25 47v0q13 18 33 30t44 14v0h0.5h0.5q25 0 45 -12t31 -32h1q13 -18 21 -40.5t8 -46.5q0 -5 -0.5 -10t-1.5 -9v1v0zM302 423q12 0 21 8t17 20
q8 13 12.5 27.5t4.5 31.5v1v1v0v2.5v3.5q0 17 -4.5 32.5t-12.5 28.5v-1q-7 12 -18.5 19.5t-25.5 8.5v0q-12 0 -21 -7.5t-18 -20.5q-7 -12 -11.5 -27t-4.5 -31v-1.5v-1.5v1v-1.5v-1.5q0 -18 4.5 -34t12.5 -31l-1 1q7 -12 18.5 -20t26.5 -8v0v0z" />
</svg>
