<?xml version="1.0" standalone="no"?>
<!DOCTYPE svg PUBLIC "-//W3C//DTD SVG 1.1//EN" "http://www.w3.org/Graphics/SVG/1.1/DTD/svg11.dtd" >
<svg width="25" xmlns="http://www.w3.org/2000/svg" xmlns:xlink="http://www.w3.org/1999/xlink" version="1.1" viewBox="-10 0 1034 1024">
   <path fill="currentColor"
d="M494 759l-145 -82v-96h1l145 72q4 1 7.5 2t6.5 1q4 0 7.5 -1t7.5 -2h-1l146 -72v96l-144 82q-4 2 -7.5 3t-8.5 1q-4 0 -8 -1t-7 -3v0v0zM740 596v0v0q0 -9 4.5 -16t11.5 -11v0v-102l-232 121q-3 2 -7 3t-8 1t-7.5 -1t-6.5 -3v0l-256 -134q-8 -4 -12.5 -11t-4.5 -16
t4.5 -16.5t12.5 -11.5v0l256 -134q3 -2 6.5 -3t7.5 -1t8 1t7 3v0l256 134q7 4 12 11.5t5 16.5q0 6 -3 12t-7 11v0v119q7 4 11 11.5t4 15.5q0 13 -9 22t-22 9t-22 -9t-9 -22v0v0v0v0z" />
</svg>
