<?xml version="1.0" standalone="no"?>
<!DOCTYPE svg PUBLIC "-//W3C//DTD SVG 1.1//EN" "http://www.w3.org/Graphics/SVG/1.1/DTD/svg11.dtd" >
<svg xmlns="http://www.w3.org/2000/svg" xmlns:xlink="http://www.w3.org/1999/xlink" version="1.1" viewBox="-10 0 1034 1024">
   <path fill="currentColor"
d="M512 832q-66 0 -125 -25q-58 -25 -101.5 -68.5t-68.5 -101.5q-25 -59 -25 -125t25 -125q25 -58 68.5 -101.5t101.5 -68.5q59 -25 125 -25t125 25q58 25 101.5 68.5t68.5 101.5q25 59 25 125t-25 124.5t-69 101.5v0q-43 44 -101.5 69t-124.5 25v0v0zM512 320
q-13 0 -22.5 9.5t-9.5 22.5v0v160v0v0q0 6 2 11t5 9v0q1 1 2 2.5t3 2.5v0l147 123q4 4 9 6t11 2v0v0v0q14 0 23 -9.5t9 -22.5v-1.5v-1.5v0q0 -7 -3 -12.5t-8 -9.5v0l-136 -114v-145q0 -13 -9.5 -22.5t-22.5 -9.5v0v0z" />
</svg>
