<svg xmlns="http://www.w3.org/2000/svg" viewBox="0 0 60.813 60.813" id="svg10"><defs id="defs4"><style id="style2">.cls-1{fill:#8bbbe8}</style></defs><g id="Group_223" data-name="Group 223" transform="translate(-961.188 -799.006)"><path id="Path_310" d="M34.808-29.966l-12.172-7.1c-1.109-.648-2-.13-2 1.153l.064 14.092c.006 1.283.911 1.8 2.024 1.162L34.8-27.633a1.234 1.234 0 0 0 .008-2.333z" class="cls-1" data-name="Path 310" transform="rotate(-90 926.609 -71.924)" fill="#8bbbe8"/><path id="Subtraction_18" d="M23655.5 12066a27.475 27.475 0 0 1-27.49-27h5a22.5 22.5 0 1 0 22.99-23v-5a27.5 27.5 0 0 1-.5 54.991z" class="cls-1" data-name="Subtraction 18" transform="translate(-22661 -11208)" fill="#8bbbe8"/><circle id="Ellipse_68" cx="8.5" cy="8.5" r="8.5" class="cls-1" data-name="Ellipse 68" transform="translate(986 822)" fill="#8bbbe8"/></g></svg>