<?xml version="1.0" encoding="UTF-8"?><!DOCTYPE svg PUBLIC "-//W3C//DTD SVG 1.1//EN" "http://www.w3.org/Graphics/SVG/1.1/DTD/svg11.dtd"><svg xmlns="http://www.w3.org/2000/svg" xmlns:xlink="http://www.w3.org/1999/xlink"><defs/><symbol id="chevron-left" viewBox="0 0 24 24">
  <path fill-rule="evenodd" clip-rule="evenodd" d="M15.67 4.293a1 1 0 0 1 0 1.414l-6.256 6.256 6.256 6.256a1 1 0 0 1-1.414 1.414L7.293 12.67a1 1 0 0 1 0-1.414l6.963-6.963a1 1 0 0 1 1.414 0Z"/>
</symbol><symbol id="chevron-right" viewBox="0 0 24 24">
  <path fill-rule="evenodd" clip-rule="evenodd" d="M9.293 4.293a1 1 0 0 1 1.414 0l6.963 6.963a1 1 0 0 1 0 1.414l-6.963 6.963a1 1 0 1 1-1.414-1.414l6.256-6.256-6.256-6.256a1 1 0 0 1 0-1.414Z"/>
</symbol><symbol id="expand" viewBox="0 0 24 24">
  <path fill-rule="evenodd" clip-rule="evenodd" d="M2.922 2.934a1 1 0 0 1 .707-.293H8.92a1 1 0 1 1 0 2H6.166l4.152 4.152a1 1 0 0 1-1.415 1.414L4.63 5.933v2.983a1 1 0 0 1-2 0V3.64a1 1 0 0 1 .293-.707Zm15.039 1.715h-2.747a1 1 0 1 1 0-2h5.274a1 1 0 0 1 1 1v5.29a1 1 0 1 1-2 0V5.95l-4.28 4.282a1 1 0 0 1-1.415-1.414l4.168-4.168Zm-7.719 9.18a1 1 0 0 1-.072 1.413l-4.174 3.77h2.916a1 1 0 1 1 0 2H3.637a1 1 0 0 1-1-1V14.72a1 1 0 1 1 2 0v2.823l4.193-3.786a1 1 0 0 1 1.412.072Zm3.515.002a1 1 0 0 1 1.413-.074l4.2 3.786v-2.829a1 1 0 0 1 2 0v5.275a1 1 0 0 1-1 1h-5.29a1 1 0 1 1 0-2h2.907l-4.156-3.746a1 1 0 0 1-.074-1.412Z"/>
</symbol><symbol id="lang" viewBox="0 0 18.5 18.5">
  <path d="M8.9 11.5c.4 0 .8-.3.8-.7 0-.4-.3-.8-.7-.8-1.4 0-2.8-.3-3.8-.8 1-1.4 1.7-3.4 1.8-5.7h1.3c.4 0 .7-.3.7-.7S8.7 2 8.2 2H7V.8c0-.5-.3-.8-.8-.8s-.7.3-.7.8V2H1.2c-.4 0-.7.3-.7.8s.3.8.8.8h4.2c-.1 1.8-.7 3.6-1.6 4.8-.6-.5-.9-1.1-.9-1.6S2.7 6 2.3 6c-.5 0-.8.3-.8.7 0 1 .5 1.9 1.3 2.7-.5.4-1 .6-1.6.6-.4 0-.8.3-.8.8s.3.8.8.8c1.1 0 2-.4 2.9-1.1 1.3.5 3 1 4.8 1zm9 5.9-4-9c-.2-.5-1.1-.5-1.4 0l-4 9c-.2.4 0 .8.4 1 .4.2.8 0 1-.4l.7-1.6h5.2l.7 1.6c.1.3.4.4.7.4.1 0 .2 0 .3-.1.4 0 .6-.5.4-.9zM11.3 15l2-4.4 2 4.4h-4z"/>
</symbol><symbol id="pause" viewBox="0 0 24 24">
  <path fill-rule="evenodd" clip-rule="evenodd" d="M2 5.5A2.5 2.5 0 0 1 4.5 3h3A2.5 2.5 0 0 1 10 5.5v13A2.5 2.5 0 0 1 7.5 21h-3A2.5 2.5 0 0 1 2 18.5v-13ZM4.5 5a.5.5 0 0 0-.5.5v13a.5.5 0 0 0 .5.5h3a.5.5 0 0 0 .5-.5v-13a.5.5 0 0 0-.5-.5h-3Zm9.5.5A2.5 2.5 0 0 1 16.5 3h3A2.5 2.5 0 0 1 22 5.5v13a2.5 2.5 0 0 1-2.5 2.5h-3a2.5 2.5 0 0 1-2.5-2.5v-13Zm2.5-.5a.5.5 0 0 0-.5.5v13a.5.5 0 0 0 .5.5h3a.5.5 0 0 0 .5-.5v-13a.5.5 0 0 0-.5-.5h-3Z"/>
</symbol><symbol id="play" viewBox="0 0 17 18">
  <path d="M4.283.512A2.5 2.5 0 0 0 .5 2.66v12.68a2.5 2.5 0 0 0 3.783 2.148 1 1 0 0 0 .003-.002l10.53-6.35a1 1 0 0 0 .005-.003 2.5 2.5 0 0 0 0-4.266 1 1 0 0 0-.005-.003L4.286.514a1 1 0 0 0-.003-.002ZM3.256 2.228a.5.5 0 0 0-.756.43 1 1 0 0 1 0 .002v12.68a1 1 0 0 1 0 .002.5.5 0 0 0 .756.43L13.78 9.426a.5.5 0 0 0 0-.852L3.257 2.228h-.001Z" fill-rule="evenodd"/>
</symbol><symbol id="rm-badge" viewBox="0 0 106 150">
  <path d="M73.25 25.47c.14.38.24.8.19 1.3 1.39.66 1.53 1.77 1.2 2.93-.37 1.4-1.2 2.38-3.38 1.86a2.21 2.21 0 0 0 3.99 1.53c0-.13.04-.32.04-.46a2.29 2.29 0 0 1 2.78-1.62 2.3 2.3 0 0 1 1.63 2.79c-.1.37-.28.7-.51.93a2.2 2.2 0 0 0 1.16 2.18c.6.33 1.25.37 1.85.14-1.62-.84-1.67-2-1.2-3.25.23-.66.6-1.21 1.1-1.54a9.18 9.18 0 0 0-8.85-6.79Zm7.42-.65c-1.3-2.32-3.43-4.09-6.81-5.8 0 .97-.33 1.62-.88 2.04.92.18 1.66.97 1.8 1.95.24 0 .33.19.33.47 2.73.46 5 1.8 6.63 3.67-.28-.8-.6-1.58-1.07-2.33Zm-43.75-1.95c-.1.42-.14.84-.19 1.26.51.18.93.55 1.2 1.25 1.54-.1 2.18.8 2.46 2 .37 1.4.1 2.65-2.08 3.25a2.23 2.23 0 0 0 2.6 1.26 2.18 2.18 0 0 0 1.66-2.1 2.28 2.28 0 0 1 1.95-3.44 2.28 2.28 0 0 1 2.18 2.94 2.2 2.2 0 0 0 2.13 1.58c1.11 0 2.04-.8 2.18-1.86-2.23 0-2.83-1.21-2.83-2.65 0-1.21.42-2.23 1.9-2.56.23-1.25.6-1.77 1.58-1.95a2 2 0 0 1-1.16-1.81 7.07 7.07 0 0 0-3.76-.84 15.5 15.5 0 0 0-9.82 3.67Zm1.06-3.44a18.04 18.04 0 0 1 8.86-2.37c1.43 0 2.78.19 4.07.51v-.46c-.23-.33-.32-.7-.32-1.12 0-.42.14-.79.32-1.11v-1.82c-.23-.32-.32-.7-.32-1.11-5.84-.56-10.43 2.74-12.6 7.48ZM27.42 40.58c-.65.28-1.35 0-1.67-.65-.19-.37-.14-.74 0-1.11-1.3.41-2.7.14-3.71-.7-1.16.79-2.37.42-3.3-.28-.97-.74-1.75-2.51-.6-3.49-.88-1.16-.64-2.7.42-3.39a2.42 2.42 0 0 1-.32-1.16c0-1.12.79-2 1.8-2.23a1.96 1.96 0 0 1-.88-1.72 2.3 2.3 0 0 1 2.04-2.28 2.28 2.28 0 0 1 1.9-3.53c.19 0 .42.04.6.09a2.2 2.2 0 0 1-.18-.93 2.28 2.28 0 0 1 3.3-2.05c-.05-1.62.97-2.65 2.22-2.65.46 0 .92.14 1.3.42a2.29 2.29 0 0 1 2.22-1.81c.79 0 1.48.42 1.9 1.07a2.24 2.24 0 0 1 1.67-.75c.18 0 .32 0 .5.05a2.56 2.56 0 0 1-.13-.84 2.28 2.28 0 0 1 2.27-2.27c.46 0 .83.14 1.2.32-.04-1.63.98-2.65 2.23-2.65.51 0 .97.19 1.34.47a2.25 2.25 0 0 1 2.23-1.77c.65 0 1.2.23 1.62.65a2.25 2.25 0 0 1 2.04-1.3c.28 0 .51.05.74.14a6.3 6.3 0 0 1 1.9-1.2V3.3h-1.71V1.53h1.71V0h1.86v1.53h1.71V3.3h-1.71v1.72c.97.37 1.48.7 1.9 1.16.23-.09.46-.14.74-.14.93 0 1.67.56 2.04 1.3.42-.41.97-.65 1.62-.65 1.07 0 2 .75 2.23 1.77a2.24 2.24 0 0 1 3.61 1.81c.32.14.74 0 1.16 0a2.28 2.28 0 0 1 2.27 2.28c0 .28-.05.56-.14.84.19-.05.33-.05.51-.05.65 0 1.25.28 1.67.75a2.26 2.26 0 0 1 1.9-1.07c1.07 0 2 .79 2.22 1.8a2.28 2.28 0 0 1 3.57 1.86c.28.2.65.1 1.02.1a2.28 2.28 0 0 1 2.27 2.28c0 .32-.09.65-.18.93.18-.05.37-.1.6-.1a2.28 2.28 0 0 1 1.9 3.54 2.24 2.24 0 0 1 2.04 2.28c0 .74-.32 1.4-.88 1.81a2.3 2.3 0 0 1 1.48 3.4c1.12.7 1.35 2.18.42 3.39 1.16.97.33 2.74-.6 3.48-.93.7-2.13 1.07-3.3.28a4.23 4.23 0 0 1-3.7.7c.14.33.19.74 0 1.12-.32.65-1.07.93-1.72.6a59.14 59.14 0 0 0-25.53-5.72 61.15 61.15 0 0 0-25.63 5.81Zm-3.48-8.32c.46.33.79.88 1.02 1.49.46 1.25.42 2.42-1.2 3.25.6.24 1.24.19 1.85-.14a2.28 2.28 0 0 0 1.16-2.18c-.24-.28-.42-.6-.51-.93a2.3 2.3 0 0 1 1.62-2.79c1.2-.33 2.46.42 2.78 1.63.05.14.05.32.05.46.5.7 1.43 1.07 2.36.84a2.26 2.26 0 0 0 1.67-2.37c-2.18.56-3.01-.47-3.39-1.86-.32-1.16-.18-2.28 1.21-2.93-.05-.51.05-.98.23-1.3a9.3 9.3 0 0 0-8.85 6.83Zm7.28-9.25a2.2 2.2 0 0 1 1.8-1.95 2.37 2.37 0 0 1-.88-1.81c-3.47 1.48-5.6 3.3-6.9 5.71-.51 1.21-.6 1.5-.8 2.05a11.27 11.27 0 0 1 6.59-3.63l.19-.37Zm24.14-2.93c0 .84-.46 1.54-1.2 1.82.97.18 1.34.7 1.57 1.95 1.49.28 1.9 1.3 1.9 2.55 0 1.45-.55 2.6-2.82 2.65a2.2 2.2 0 0 0 2.18 1.86 2.2 2.2 0 0 0 2.13-1.58 2.28 2.28 0 0 1 2.18-2.93 2.28 2.28 0 0 1 1.94 3.44c0 .98.7 1.86 1.67 2.1a2.23 2.23 0 0 0 2.6-1.26c-2.18-.56-2.41-1.86-2.09-3.25.33-1.17.93-2.1 2.46-2 .32-.65.74-1.07 1.2-1.26-.04-.42-.09-.83-.18-1.25a15.1 15.1 0 0 0-9.97-3.67c-1.3 0-2.5.13-3.75.46l.18.37Zm12.66-.6c-2.13-4.79-6.68-8.14-12.66-7.81 0 .65-.09 1.02-.32 1.35v1.8c.23.33.32.7.32 1.12 0 .42-.14.8-.32 1.12v.47c1.3-.33 2.64-.47 4.08-.47 3.29.05 6.35.93 8.9 2.42ZM32.19 35.75a4.52 4.52 0 0 1-2.32-.84c-.23.19-.5.33-.79.37-.46.89-.83 1.68-1.43 2.28a57.79 57.79 0 0 1 4.54-1.81Zm37.22-4.56a4.08 4.08 0 0 1-2.97 2.47 69 69 0 0 1 4.4 1.11 3.88 3.88 0 0 1-1.43-3.58Zm-6.07 1.86a4.48 4.48 0 0 1-1.81-2.23c-.37 0-.56-.05-.79-.1a4.51 4.51 0 0 1-2.32 1.73c1.63.14 3.3.32 4.92.6Zm-15.76-.6a4.78 4.78 0 0 1-2.32-1.72c-.23.04-.42.09-.65.09a4.97 4.97 0 0 1-1.9 2.23c1.58-.28 3.24-.46 4.87-.6Zm-10.94-1.26c.14 1.4-.42 2.7-1.4 3.58 1.45-.42 2.93-.79 4.41-1.11a4 4 0 0 1-3.01-2.47Zm14.09 1.07c.74-.04 1.53-.04 2.32-.04.78 0 1.53 0 2.31.04a4.33 4.33 0 0 1-2.31-3.11 4.33 4.33 0 0 1-2.32 3.11Zm23.13 3.49a78 78 0 0 1 4.54 1.81c-.56-.6-.97-1.4-1.11-2.23-.6-.14-.88-.28-1.12-.42-.64.51-1.48.8-2.31.84Zm9.31-1.68a2.2 2.2 0 0 0 .84 2.98c1.06.6 2.36.19 2.96-.84a2.22 2.22 0 0 0-.88-2.97 2.1 2.1 0 0 0-2.92.83Zm-15.06-6.5a2.2 2.2 0 0 0 1.58 2.65 2.19 2.19 0 0 0 2.64-1.58 2.2 2.2 0 0 0-1.58-2.65 2.12 2.12 0 0 0-2.64 1.58Zm-44.96 6.27a2.2 2.2 0 0 0-2.97-.88 2.2 2.2 0 0 0-.88 2.97 2.2 2.2 0 0 0 2.97.89 2.13 2.13 0 0 0 .88-2.98Zm14.74-6.27a2.19 2.19 0 0 0-2.64-1.58 2.2 2.2 0 0 0-1.58 2.65 2.19 2.19 0 0 0 2.64 1.58 2.14 2.14 0 0 0 1.58-2.65Zm17.29-1.68a2.18 2.18 0 1 0-4.36 0 2.18 2.18 0 1 0 4.36 0Zm22.9 17.39.41 1.72-1.71.98c.28.18.37.5.23.83a.63.63 0 0 1-.84.33A53.74 53.74 0 0 0 53 41.98c-8.3 0-16.13 1.86-23.17 5.16-.33.14-.65 0-.84-.33-.14-.28 0-.65.23-.83L27.51 45l.41-1.72a.59.59 0 0 1-.64-.33.54.54 0 0 1 .23-.74A59.36 59.36 0 0 1 53 36.54c9.13 0 17.7 2.04 25.45 5.67.27.14.37.46.23.74a.56.56 0 0 1-.6.33ZM53 49.93c-25.54 0-46.4 20.87-46.4 46.53 0 25.61 20.86 46.53 46.4 46.53s46.4-20.92 46.4-46.53c0-25.66-20.86-46.53-46.4-46.53Zm0-6.23c28.97 0 52.56 23.7 52.56 52.76 0 29-23.6 52.72-52.56 52.72-28.97 0-52.56-23.71-52.56-52.72C.44 67.4 24.04 43.7 53 43.7Zm44.03 52.48a43.9 43.9 0 0 1-10.24 28.26l-5.05-5.06c5.42-6.6 8.94-13.16 8.94-23.62 0-11.02-5.75-23.57-14.97-29.94l-5.89 6.05a29.53 29.53 0 0 1 7.75 8.18l-5.01 4.32a22.28 22.28 0 0 0-7.28-7.71L53 89.67 40.25 76.52c-6.48 4.5-10.24 11.15-10.42 19.15-.19 10.64 6.62 18.27 16.31 21.52V95.4h15.39v4.83H52.3v5.49h9.09v5.49H52.3v7.02c6.63.32 13.86-3.72 18.13-8.51l4.77 4.83c-5.7 6.74-14.14 10.28-22.85 10.32v6.74H46.2v-7.48c-13.3-3.35-22.9-15.2-22.71-29.1.13-9.48 5.14-17.48 12.51-23.01l-5.98-6.23c-9.55 7.85-14.7 17.52-15.1 29.94-.33 11.2 5.5 20.12 9.08 23.8l-4.45 4.55A42.16 42.16 0 0 1 9.06 96.13c0-16.31 9-30.72 22.3-38.35l10.38 10.88a30.34 30.34 0 0 1 22.34 0l.5-.51L74.7 57.69a44.46 44.46 0 0 1 22.34 38.49ZM59.26 73.87a29.61 29.61 0 0 0-6.4-1.03c-2.18-.09-4.36.38-6.44.84l6.02 6.23.65.47 6.17-6.51Zm-.14 11.9 25.49 26.45a60.22 60.22 0 0 1-5.33 7.3l6.4 6.37a46.36 46.36 0 0 1-15.16 10.97l-10.7-11.02c7.04-1.63 13.11-5.67 17.8-11.44l-7.29-7.39c-3.89 4.65-9.87 8.97-16.17 9.4v-3.45h9.08v-9.1h-9.08v-1.87h9.22v-8.46h-19V110l-12.7-13.02c0-.42-.05-.88 0-1.3a21.5 21.5 0 0 1 8.43-16.83l11.92 12.37 1.02 1.02 6.07-6.46Zm-36.48 2-3.8-3.9a37.26 37.26 0 0 1 10.94-15.63l3.43 3.54a32.15 32.15 0 0 0-10.57 15.99Z"/>
</symbol><symbol id="sound-muted" viewBox="0 0 24 24">
  <path fill-rule="evenodd" clip-rule="evenodd" d="M10.433 4.099A1 1 0 0 1 11 5v14a1 1 0 0 1-1.625.78L4.65 16H1a1 1 0 0 1-1-1V9a1 1 0 0 1 1-1h3.65l4.725-3.78a1 1 0 0 1 1.058-.121ZM9 7.08l-3.375 2.7A1 1 0 0 1 5 10H2v4h3a1 1 0 0 1 .625.22L9 16.92V7.08Zm5.293 1.212a1 1 0 0 1 1.414 0l2.475 2.475 2.475-2.475a1 1 0 1 1 1.414 1.414l-2.475 2.475 2.475 2.475a1 1 0 0 1-1.414 1.414l-2.475-2.475-2.475 2.475a1 1 0 1 1-1.414-1.414l2.475-2.475-2.475-2.475a1 1 0 0 1 0-1.414Z"/>
</symbol><symbol id="sound-playing" viewBox="0 0 24 24">
  <path fill-rule="evenodd" clip-rule="evenodd" d="M18.995 3.293a1 1 0 0 1 1.414 0 12.001 12.001 0 0 1 0 16.97 1 1 0 0 1-1.414-1.414 9.997 9.997 0 0 0 0-14.142 1 1 0 0 1 0-1.414Zm-8.562.973a1 1 0 0 1 .567.901v14a1 1 0 0 1-1.625.781l-4.726-3.78H1a1 1 0 0 1-1-1v-6a1 1 0 0 1 1-1h3.65l4.725-3.782a1 1 0 0 1 1.058-.12ZM9 7.248l-3.375 2.7a1 1 0 0 1-.625.22H2v4h3a1 1 0 0 1 .625.218L9 17.086V7.249Zm5.728-.152a1 1 0 0 1 1.414 0 6.999 6.999 0 0 1 0 9.9 1 1 0 0 1-1.414-1.415 5 5 0 0 0 0-7.07 1 1 0 0 1 0-1.415Z"/>
</symbol><symbol id="times" viewBox="0 0 24 24">
  <path fill-rule="evenodd" clip-rule="evenodd" d="M19.481 5.293a1 1 0 0 1 0 1.414l-5.68 5.68 5.68 5.68a1 1 0 0 1-1.414 1.414l-5.68-5.68-5.68 5.68a1 1 0 0 1-1.414-1.414l5.68-5.68-5.68-5.68a1 1 0 0 1 1.414-1.414l5.68 5.68 5.68-5.68a1 1 0 0 1 1.414 0Z"/>
</symbol></svg>